<svg xmlns="http://www.w3.org/2000/svg" enable-background="new 0 0 28 28" viewBox="0 0 28 28"><switch><g><path fill="#7c3aed" d="M19.5,25h-11c-3,0-5.5-2.5-5.5-5.5v-11C3,5.5,5.5,3,8.5,3h11c3,0,5.5,2.5,5.5,5.5v11C25,22.5,22.5,25,19.5,25
			z M22,14c0-2.2-1.8-4-4-4h-1c-0.6,0-1,0.4-1,1s0.4,1,1,1h1c1.1,0,2,0.9,2,2s-0.9,2-2,2h-1c-0.6,0-1,0.4-1,1s0.4,1,1,1h1
			C20.2,18,22,16.2,22,14z M12,17c0-0.6-0.4-1-1-1h-1c-1.1,0-2-0.9-2-2s0.9-2,2-2h1c0.6,0,1-0.4,1-1s-0.4-1-1-1h-1c-2.2,0-4,1.8-4,4
			s1.8,4,4,4h1C11.6,18,12,17.6,12,17z M18,14c0-0.6-0.4-1-1-1h-6c-0.6,0-1,0.4-1,1s0.4,1,1,1h6C17.6,15,18,14.6,18,14z"/></g></switch></svg>